<mxfile host="app.diagrams.net" modified="2024-07-15T18:59:33.895Z" agent="Mozilla/5.0 (Macintosh; Intel Mac OS X 10_15_7) AppleWebKit/537.36 (KHTML, like Gecko) Chrome/126.0.0.0 Safari/537.36" etag="TFnqIJXX2igQ7Xh26dwr" version="24.6.5" type="github">
  <diagram name="Page-1" id="PQpvzgl9xymPNwOv2N0A">
    <mxGraphModel dx="1026" dy="576" grid="1" gridSize="10" guides="1" tooltips="1" connect="1" arrows="1" fold="1" page="1" pageScale="1" pageWidth="827" pageHeight="1169" math="0" shadow="0">
      <root>
        <mxCell id="0" />
        <mxCell id="1" parent="0" />
        <mxCell id="KWS7t6jafoBLZ8HItT5k-1" value="User" style="swimlane;whiteSpace=wrap;html=1;" vertex="1" parent="1">
          <mxGeometry x="200" y="50" width="190" height="500" as="geometry" />
        </mxCell>
        <mxCell id="KWS7t6jafoBLZ8HItT5k-2" style="edgeStyle=orthogonalEdgeStyle;rounded=0;orthogonalLoop=1;jettySize=auto;html=1;exitX=0.5;exitY=1;exitDx=0;exitDy=0;entryX=0.5;entryY=0;entryDx=0;entryDy=0;" edge="1" parent="KWS7t6jafoBLZ8HItT5k-1" source="KWS7t6jafoBLZ8HItT5k-3" target="KWS7t6jafoBLZ8HItT5k-4">
          <mxGeometry relative="1" as="geometry" />
        </mxCell>
        <mxCell id="KWS7t6jafoBLZ8HItT5k-3" value="" style="ellipse;whiteSpace=wrap;html=1;aspect=fixed;fillColor=#030303;" vertex="1" parent="KWS7t6jafoBLZ8HItT5k-1">
          <mxGeometry x="80" y="40" width="30" height="30" as="geometry" />
        </mxCell>
        <mxCell id="KWS7t6jafoBLZ8HItT5k-4" value="Membuka Aplikasi" style="rounded=1;whiteSpace=wrap;html=1;" vertex="1" parent="KWS7t6jafoBLZ8HItT5k-1">
          <mxGeometry x="35" y="90" width="120" height="40" as="geometry" />
        </mxCell>
        <mxCell id="KWS7t6jafoBLZ8HItT5k-5" value="Menambahkan produk ke keranjang" style="rounded=1;whiteSpace=wrap;html=1;" vertex="1" parent="KWS7t6jafoBLZ8HItT5k-1">
          <mxGeometry x="35" y="150" width="120" height="40" as="geometry" />
        </mxCell>
        <mxCell id="KWS7t6jafoBLZ8HItT5k-6" value="Sistem" style="swimlane;whiteSpace=wrap;html=1;" vertex="1" parent="1">
          <mxGeometry x="390" y="50" width="290" height="500" as="geometry" />
        </mxCell>
        <mxCell id="KWS7t6jafoBLZ8HItT5k-7" value="Menampilkan produk" style="rounded=1;whiteSpace=wrap;html=1;" vertex="1" parent="KWS7t6jafoBLZ8HItT5k-6">
          <mxGeometry x="90" y="70" width="120" height="40" as="geometry" />
        </mxCell>
        <mxCell id="KWS7t6jafoBLZ8HItT5k-8" style="edgeStyle=orthogonalEdgeStyle;rounded=0;orthogonalLoop=1;jettySize=auto;html=1;exitX=0.5;exitY=1;exitDx=0;exitDy=0;entryX=0.5;entryY=0;entryDx=0;entryDy=0;" edge="1" parent="KWS7t6jafoBLZ8HItT5k-6" source="KWS7t6jafoBLZ8HItT5k-9" target="KWS7t6jafoBLZ8HItT5k-14">
          <mxGeometry relative="1" as="geometry" />
        </mxCell>
        <mxCell id="KWS7t6jafoBLZ8HItT5k-9" value="Mengecek ketersediaan stok" style="rounded=1;whiteSpace=wrap;html=1;" vertex="1" parent="KWS7t6jafoBLZ8HItT5k-6">
          <mxGeometry x="103.75" y="180" width="120" height="40" as="geometry" />
        </mxCell>
        <mxCell id="KWS7t6jafoBLZ8HItT5k-12" style="edgeStyle=orthogonalEdgeStyle;rounded=0;orthogonalLoop=1;jettySize=auto;html=1;exitX=0;exitY=0.5;exitDx=0;exitDy=0;entryX=0.5;entryY=0;entryDx=0;entryDy=0;" edge="1" parent="KWS7t6jafoBLZ8HItT5k-6" source="KWS7t6jafoBLZ8HItT5k-14" target="KWS7t6jafoBLZ8HItT5k-16">
          <mxGeometry relative="1" as="geometry" />
        </mxCell>
        <mxCell id="KWS7t6jafoBLZ8HItT5k-13" value="Ya" style="edgeLabel;html=1;align=center;verticalAlign=middle;resizable=0;points=[];" vertex="1" connectable="0" parent="KWS7t6jafoBLZ8HItT5k-12">
          <mxGeometry x="-0.5429" y="2" relative="1" as="geometry">
            <mxPoint as="offset" />
          </mxGeometry>
        </mxCell>
        <mxCell id="KWS7t6jafoBLZ8HItT5k-23" style="edgeStyle=orthogonalEdgeStyle;rounded=0;orthogonalLoop=1;jettySize=auto;html=1;exitX=1;exitY=0.5;exitDx=0;exitDy=0;" edge="1" parent="KWS7t6jafoBLZ8HItT5k-6" source="KWS7t6jafoBLZ8HItT5k-14" target="KWS7t6jafoBLZ8HItT5k-22">
          <mxGeometry relative="1" as="geometry" />
        </mxCell>
        <mxCell id="KWS7t6jafoBLZ8HItT5k-14" value="&lt;font style=&quot;font-size: 10px;&quot;&gt;Stok tersedia ?&amp;nbsp;&lt;/font&gt;" style="rhombus;whiteSpace=wrap;html=1;" vertex="1" parent="KWS7t6jafoBLZ8HItT5k-6">
          <mxGeometry x="123.75" y="250" width="80" height="80" as="geometry" />
        </mxCell>
        <mxCell id="KWS7t6jafoBLZ8HItT5k-15" style="edgeStyle=orthogonalEdgeStyle;rounded=0;orthogonalLoop=1;jettySize=auto;html=1;exitX=0.5;exitY=1;exitDx=0;exitDy=0;" edge="1" parent="KWS7t6jafoBLZ8HItT5k-6" source="KWS7t6jafoBLZ8HItT5k-16" target="KWS7t6jafoBLZ8HItT5k-17">
          <mxGeometry relative="1" as="geometry" />
        </mxCell>
        <mxCell id="KWS7t6jafoBLZ8HItT5k-16" value="Tampilkan pesan berhasil" style="rounded=1;whiteSpace=wrap;html=1;" vertex="1" parent="KWS7t6jafoBLZ8HItT5k-6">
          <mxGeometry x="30" y="365" width="120" height="40" as="geometry" />
        </mxCell>
        <mxCell id="KWS7t6jafoBLZ8HItT5k-17" value="" style="ellipse;whiteSpace=wrap;html=1;aspect=fixed;gradientColor=none;strokeColor=default;strokeWidth=1;" vertex="1" parent="KWS7t6jafoBLZ8HItT5k-6">
          <mxGeometry x="140" y="440" width="35" height="35" as="geometry" />
        </mxCell>
        <mxCell id="KWS7t6jafoBLZ8HItT5k-18" value="" style="ellipse;whiteSpace=wrap;html=1;aspect=fixed;fillColor=#030303;" vertex="1" parent="KWS7t6jafoBLZ8HItT5k-6">
          <mxGeometry x="143.75" y="443.75" width="27.5" height="27.5" as="geometry" />
        </mxCell>
        <mxCell id="KWS7t6jafoBLZ8HItT5k-24" style="edgeStyle=orthogonalEdgeStyle;rounded=0;orthogonalLoop=1;jettySize=auto;html=1;exitX=0.5;exitY=1;exitDx=0;exitDy=0;entryX=1;entryY=0;entryDx=0;entryDy=0;" edge="1" parent="KWS7t6jafoBLZ8HItT5k-6" source="KWS7t6jafoBLZ8HItT5k-22" target="KWS7t6jafoBLZ8HItT5k-18">
          <mxGeometry relative="1" as="geometry" />
        </mxCell>
        <mxCell id="KWS7t6jafoBLZ8HItT5k-22" value="Tampilkan pesan error" style="rounded=1;whiteSpace=wrap;html=1;" vertex="1" parent="KWS7t6jafoBLZ8HItT5k-6">
          <mxGeometry x="160" y="365" width="120" height="40" as="geometry" />
        </mxCell>
        <mxCell id="KWS7t6jafoBLZ8HItT5k-19" style="edgeStyle=orthogonalEdgeStyle;rounded=0;orthogonalLoop=1;jettySize=auto;html=1;exitX=1;exitY=0.5;exitDx=0;exitDy=0;entryX=0;entryY=0.5;entryDx=0;entryDy=0;" edge="1" parent="1" source="KWS7t6jafoBLZ8HItT5k-4" target="KWS7t6jafoBLZ8HItT5k-7">
          <mxGeometry relative="1" as="geometry" />
        </mxCell>
        <mxCell id="KWS7t6jafoBLZ8HItT5k-20" style="edgeStyle=orthogonalEdgeStyle;rounded=0;orthogonalLoop=1;jettySize=auto;html=1;exitX=0.5;exitY=1;exitDx=0;exitDy=0;entryX=1;entryY=0.5;entryDx=0;entryDy=0;" edge="1" parent="1" source="KWS7t6jafoBLZ8HItT5k-7" target="KWS7t6jafoBLZ8HItT5k-5">
          <mxGeometry relative="1" as="geometry" />
        </mxCell>
        <mxCell id="KWS7t6jafoBLZ8HItT5k-21" style="edgeStyle=orthogonalEdgeStyle;rounded=0;orthogonalLoop=1;jettySize=auto;html=1;exitX=0.5;exitY=1;exitDx=0;exitDy=0;entryX=0;entryY=0.5;entryDx=0;entryDy=0;" edge="1" parent="1" source="KWS7t6jafoBLZ8HItT5k-5" target="KWS7t6jafoBLZ8HItT5k-9">
          <mxGeometry relative="1" as="geometry" />
        </mxCell>
      </root>
    </mxGraphModel>
  </diagram>
</mxfile>
